<svg width="1640" height="2596" viewBox="0 0 1640 2596" fill="none" xmlns="http://www.w3.org/2000/svg">
<g filter="url(#filter0_n_97_182)">
<path d="M568.176 1137.87H1274.73C1345.92 1137.89 1414.19 1166.18 1464.53 1216.52C1514.86 1266.87 1543.14 1335.14 1543.14 1406.33V2093.24C1543.14 2176.16 1510.2 2255.68 1451.57 2314.31C1392.94 2372.94 1313.42 2405.88 1230.5 2405.88H275.16V1430.85C275.169 1353.15 306.044 1278.62 360.994 1223.68C415.944 1168.74 490.469 1137.87 568.176 1137.87Z" fill="#3C6677"/>
</g>
<g filter="url(#filter1_n_97_182)">
<path d="M1460.39 1303.62V1990.52C1460.39 2163.17 1318.34 2303.16 1143.05 2303.16H275.193L173.43 2405.88V1407.1C173.43 1403.92 173.43 1401.06 173.43 1398.03C178.295 1196.8 345.41 1035.15 550.846 1035.15H1187.89C1338.4 1035.15 1460.39 1155.33 1460.39 1303.62Z" fill="#3C6677"/>
</g>
<g filter="url(#filter2_n_97_182)">
<path d="M598.069 1035.12H1274.73C1345.92 1035.14 1414.19 1063.43 1464.53 1113.77C1514.86 1164.12 1543.14 1232.39 1543.14 1303.58V1917.6C1543.14 1968.22 1533.18 2018.35 1513.82 2065.12C1494.45 2111.9 1466.06 2154.39 1430.27 2190.19C1394.48 2225.99 1351.99 2254.39 1305.22 2273.77C1258.45 2293.15 1208.33 2303.12 1157.71 2303.13H275.16V1357.9C275.194 1272.28 309.229 1190.18 369.783 1129.65C430.336 1069.12 512.45 1035.12 598.069 1035.12Z" fill="#8FACA7"/>
</g>
<g filter="url(#filter3_n_97_182)">
<path d="M1263.64 2303.16L1182.13 2405.88H173.301L272.234 2303.16H1263.64Z" fill="#3C6677"/>
</g>
<g filter="url(#filter4_n_97_182)">
<path d="M887.588 2212.68C1169.95 2212.68 1398.85 1983.78 1398.85 1701.42C1398.85 1419.05 1169.95 1190.15 887.588 1190.15C605.222 1190.15 376.32 1419.05 376.32 1701.42C376.32 1983.78 605.222 2212.68 887.588 2212.68Z" fill="url(#paint0_linear_97_182)"/>
</g>
<path d="M887.588 1873.4C982.57 1873.4 1059.57 1796.4 1059.57 1701.42C1059.57 1606.44 982.57 1529.44 887.588 1529.44C792.606 1529.44 715.607 1606.44 715.607 1701.42C715.607 1796.4 792.606 1873.4 887.588 1873.4Z" fill="url(#paint1_linear_97_182)"/>
<g filter="url(#filter5_n_97_182)">
<path d="M379.241 2262.05C414.051 2262.05 442.271 2233.83 442.271 2199.02C442.271 2164.21 414.051 2135.99 379.241 2135.99C344.43 2135.99 316.211 2164.21 316.211 2199.02C316.211 2233.83 344.43 2262.05 379.241 2262.05Z" fill="#EDE1C7"/>
</g>
<g filter="url(#filter6_n_97_182)">
<path d="M1332.39 1246.5C1332.4 1255.13 1333.99 1263.67 1337.1 1271.72H945.114C939.193 1271.57 933.371 1273.26 928.45 1276.55L871.208 1318.94C858.17 1328.49 832.824 1322.86 832.824 1310.26V1161.59C832.824 1154.15 842.555 1148.11 854.544 1148.11H1358.43C1341.51 1171.86 1332.41 1200.29 1332.39 1229.46C1332.39 1232.86 1332.39 1236.23 1332.74 1239.54C1332.49 1241.85 1332.38 1244.18 1332.39 1246.5Z" fill="url(#paint2_linear_97_182)"/>
</g>
<g filter="url(#filter7_n_97_182)">
<path d="M1559.42 1365.47L1266.85 2453.58C1265.7 2457.55 1263.3 2461.05 1260 2463.54C1256.69 2466.03 1252.67 2467.38 1248.53 2467.38H1130.87C1127.96 2467.38 1125.09 2466.71 1122.48 2465.43C1119.86 2464.15 1117.58 2462.29 1115.8 2459.99C1114.01 2457.7 1112.78 2455.02 1112.19 2452.17C1111.6 2449.32 1111.67 2446.38 1112.39 2443.56L1393.93 1355.39C1420.3 1374.42 1452.01 1384.64 1484.53 1384.58C1487.71 1384.58 1490.7 1384.58 1493.75 1384.3L1496.64 1384.07C1518.66 1382.44 1540.07 1376.09 1559.42 1365.47Z" fill="url(#paint3_linear_97_182)"/>
</g>
<g filter="url(#filter8_n_97_182)">
<path d="M1639.78 1229.46C1639.78 1237.87 1639.1 1246.27 1637.74 1254.58C1637.36 1257.03 1636.92 1259.41 1636.41 1261.8C1636.19 1262.91 1635.87 1263.99 1635.61 1264.98L1635.33 1266C1634.25 1270.45 1633.04 1274.84 1631.61 1279.1V1279.26C1619.07 1315.91 1593.35 1346.58 1559.45 1365.31C1540.11 1375.98 1518.7 1382.37 1496.67 1384.04L1493.78 1384.26C1490.6 1384.46 1487.64 1384.55 1484.56 1384.55C1445.12 1384.56 1407.16 1369.56 1378.39 1342.6C1349.61 1315.63 1332.18 1278.73 1329.62 1239.38C1329.4 1236.2 1329.31 1232.7 1329.31 1229.3C1329.24 1200.56 1337.22 1172.39 1352.33 1147.95C1370.03 1119.14 1396.65 1096.89 1428.16 1084.6C1459.66 1072.3 1494.31 1070.63 1526.85 1079.84C1559.39 1089.04 1588.03 1108.63 1608.42 1135.6C1628.81 1162.58 1639.83 1195.48 1639.81 1229.3L1639.78 1229.46Z" fill="#E9C47E"/>
</g>
<g filter="url(#filter9_n_97_182)">
<path d="M748.457 792.858C729.822 810.953 600.55 815.787 546.043 933.928C482.663 1071.28 494.366 1326.2 492.235 1377.24C474.049 1371.66 454.791 1370.54 436.08 1373.96C417.37 1377.38 399.754 1385.24 384.715 1396.89L381.726 1215.46C378.262 995.698 460.684 783.253 611.458 623.326L748.457 792.858Z" fill="url(#paint4_linear_97_182)"/>
</g>
<g filter="url(#filter10_n_97_182)">
<path d="M1017.56 98.2254C1046.85 83.714 1079.75 78.0741 1112.21 81.9984C1144.66 85.9226 1175.27 99.2402 1200.26 120.316C1225.25 141.391 1243.55 169.307 1252.9 200.635C1262.25 231.963 1262.24 265.339 1252.89 296.665C1343.11 316.89 1408.9 387.425 1416.92 468.645C1424.99 550.82 1370.55 609.779 1361.36 619.446C1381.34 641.097 1394.41 668.207 1398.93 697.319C1403.44 726.432 1399.17 756.228 1386.69 782.909C1374.2 809.59 1354.04 831.948 1328.8 847.131C1303.55 862.315 1274.36 869.637 1244.94 868.163C1240.96 923.656 1216.31 948.016 1207.89 955.457C1156.15 1000.71 1047.77 988.562 956.658 905.212C932.203 912.017 874.325 924.292 811.136 899.901C684.345 850.959 661.225 702.479 660.335 696.183C648.377 689.25 565.599 639.354 546.582 534.792C528.328 434.554 582.676 361.126 591.549 349.582C547.599 289.16 547.981 209.084 590.118 155.309C640.999 90.3706 726.163 97.653 731.76 98.2254C754.212 42.5098 805.793 4.31661 864.053 0.341464C929.372 -4.1107 991.766 35.3227 1017.56 98.2254Z" fill="url(#paint5_radial_97_182)"/>
</g>
<g filter="url(#filter11_n_97_182)">
<path d="M887.587 1966.99C1034.26 1966.99 1153.16 1848.09 1153.16 1701.42C1153.16 1554.75 1034.26 1435.85 887.587 1435.85C740.916 1435.85 622.016 1554.75 622.016 1701.42C622.016 1848.09 740.916 1966.99 887.587 1966.99Z" fill="#824400"/>
<path d="M1558.46 1229.46C1558.47 1233.46 1558.15 1237.46 1557.51 1241.41C1557.32 1242.59 1557.1 1243.7 1556.87 1244.85C1556.87 1245.39 1556.62 1245.9 1556.49 1246.41V1246.88C1555.98 1248.98 1555.41 1251.08 1554.71 1253.24C1550.07 1266.94 1541.51 1278.97 1530.09 1287.84C1518.67 1296.71 1504.89 1302.03 1490.47 1303.14C1490.01 1303.17 1489.54 1303.17 1489.07 1303.14C1487.64 1303.14 1486.15 1303.14 1484.68 1303.14C1468.03 1303.14 1451.86 1297.52 1438.8 1287.18C1425.73 1276.84 1416.54 1262.4 1412.72 1246.18C1411.79 1242.18 1411.18 1238.11 1410.91 1234C1410.91 1232.41 1410.91 1230.82 1410.91 1229.2C1410.91 1209.59 1418.7 1190.79 1432.56 1176.92C1446.43 1163.05 1465.23 1155.26 1484.84 1155.26C1504.45 1155.26 1523.26 1163.05 1537.13 1176.92C1550.99 1190.79 1558.78 1209.59 1558.78 1229.2L1558.46 1229.46Z" fill="#824400"/>
<path d="M1191.07 2467.38C1191.07 2527.33 1043.19 2480.61 970.969 2504.75C965.436 2506.59 899.862 2539.73 904.855 2565.61C906.199 2570.6 909.065 2575.05 913.055 2578.33C917.046 2581.62 921.96 2583.57 927.115 2583.93C935.352 2583.93 948.836 2578.62 948.836 2565.61C948.836 2542.24 904.696 2504.75 882.721 2504.75C860.746 2504.75 816.606 2542.24 816.606 2565.61C816.606 2578.62 830.567 2583.93 838.867 2583.93C847.167 2583.93 860.587 2578.62 860.587 2565.61C860.587 2542.24 816.447 2504.75 794.473 2504.75C772.498 2504.75 728.167 2542.24 728.167 2565.61C728.167 2578.62 742.128 2583.93 750.428 2583.93C758.728 2583.93 772.148 2578.62 772.148 2565.61C772.148 2542.24 728.008 2504.75 706.034 2504.75C684.059 2504.75 639.919 2542.24 639.919 2565.61C639.919 2578.62 653.88 2583.93 662.18 2583.93C670.48 2583.93 683.9 2578.62 683.9 2565.61C683.9 2542.24 639.76 2504.75 617.786 2504.75C595.811 2504.75 551.671 2542.24 551.671 2565.61C551.671 2578.62 565.632 2583.93 573.932 2583.93C582.232 2583.93 595.652 2578.62 595.652 2565.61C595.652 2542.24 551.512 2504.75 529.537 2504.75C507.563 2504.75 463.423 2542.24 463.423 2565.61C463.423 2578.62 477.383 2583.93 485.683 2583.93C493.984 2583.93 507.404 2578.62 507.404 2565.61C507.404 2539.79 449.271 2506.72 441.289 2504.75C387.831 2491.52 22.5632 2600.15 18.3337 2339.54C5.61323 1545.31 -23.1986 1490.45 344.995 1490.45" stroke="#824400" stroke-width="22.2608" stroke-miterlimit="10"/>
<path d="M904.251 674.303C887.046 687.533 847.009 672.395 816.066 632.231C785.124 592.066 774.12 548.753 791.325 535.491C808.529 522.23 877.474 525.792 908.353 565.957C939.232 606.122 921.487 661.074 904.251 674.303Z" fill="#824400"/>
</g>
<g filter="url(#filter12_n_97_182)">
<path d="M1008.78 585.165C1029.18 570.651 1050.42 557.356 1072.38 545.35C1094.26 533.244 1116.65 522.114 1139.55 511.958C1162.44 501.67 1185.93 492.771 1209.89 485.309L1218.96 482.638C1221.98 481.779 1224.97 480.825 1228.05 480.157L1246.46 475.896C1252.82 474.91 1258.96 473.861 1265.19 473.002C1271.43 472.143 1277.91 472.207 1284.05 472.016C1260.2 478.798 1236.82 487.169 1214.09 497.075C1191.26 506.595 1168.55 516.4 1145.97 526.492L1077.98 556.512C1055.12 566.402 1032.25 576.26 1008.78 585.165Z" fill="#B56700"/>
</g>
<g filter="url(#filter13_n_97_182)">
<path d="M923.363 517.683C940.345 490.97 958.154 465.02 976.09 439.166C994.026 413.311 1012.15 387.68 1030.15 361.984C1048.15 336.289 1066.18 310.657 1083.67 284.676C1092.32 271.637 1100.94 258.599 1108.86 245.147C1116.78 231.695 1124.76 218.148 1128.67 202.851C1128.33 210.84 1126.86 218.742 1124.31 226.321C1123.07 230.105 1121.74 233.889 1120.34 237.61C1118.94 241.331 1117.41 245.051 1115.82 248.709C1112.64 255.991 1109.11 263.115 1105.58 270.238C1102.05 277.361 1098.11 284.262 1094.23 291.195C1078.68 318.83 1061.32 345.257 1043.16 371.143C1025 397.029 1005.92 422.025 985.916 446.607C965.913 471.189 945.529 495.072 923.363 517.683Z" fill="#B56700"/>
</g>
<g filter="url(#filter14_n_97_182)">
<path d="M989.699 656.717C1013.86 654.809 1038.14 655.128 1062.24 657.672C1086.39 660.091 1110.32 664.419 1133.79 670.615C1157.3 676.78 1180.27 684.83 1202.48 694.688C1208.01 697.105 1213.52 699.649 1218.92 702.447L1227 706.582L1234.98 710.938L1242.87 715.454C1245.44 717.044 1248.02 718.634 1250.56 720.288C1255.65 723.468 1260.74 726.839 1265.7 730.305C1259.91 728.397 1254.25 726.33 1248.62 724.231C1245.79 723.214 1243.03 722.101 1240.23 721.051L1231.74 718.062L1223.34 714.882L1214.72 712.052L1206.3 709.094L1197.81 706.327C1175.27 698.822 1152.54 692.049 1129.62 686.006C1106.71 679.964 1083.58 674.664 1060.23 670.106C1037.05 665.304 1013.49 661.233 989.699 656.717Z" fill="#B56700"/>
</g>
<g filter="url(#filter15_n_97_182)">
<path d="M916.113 715.995C938.996 723.331 961.04 733.064 981.878 745.029C1002.83 756.996 1022.62 770.889 1041 786.53C1059.39 802.193 1076.16 819.654 1091.08 838.652C1098.56 848.192 1105.3 858.114 1111.79 868.227C1118.15 878.427 1123.8 889.052 1128.7 900.028C1113.34 881.615 1097.92 863.807 1081.64 846.888C1065.5 829.961 1048.52 813.859 1030.76 798.646C1012.95 783.477 994.408 769.198 975.232 755.587C956.056 741.976 936.148 729.192 916.113 715.995Z" fill="#B56700"/>
</g>
<g filter="url(#filter16_n_97_182)">
<path d="M826.148 715.995C829.923 722.727 831.987 730.284 832.158 738.001C832.528 745.637 831.559 753.278 829.296 760.58C827.132 767.93 823.651 774.826 819.024 780.933C814.46 787.145 808.502 792.199 801.629 795.689C803.442 787.961 806.017 781.569 807.989 774.986C809.961 768.403 812.155 762.266 814.095 755.905C816.035 749.545 817.911 743.185 819.787 736.634C821.664 730.083 823.572 723.373 826.148 715.995Z" fill="#B56700"/>
</g>
<g filter="url(#filter17_n_97_182)">
<path d="M733.908 567.486C723.801 565.025 713.885 561.837 704.238 557.946C694.697 554.225 685.475 550.123 676.316 545.893C667.158 541.664 658.19 537.148 649.19 532.696C640.19 528.244 631.318 523.505 621.777 518.513C632.436 517.336 643.22 518.156 653.579 520.93C663.753 523.458 673.649 526.995 683.122 531.487C692.565 535.874 701.619 541.055 710.185 546.975C718.897 552.822 726.864 559.71 733.908 567.486Z" fill="#B56700"/>
</g>
<g filter="url(#filter18_n_97_182)">
<path d="M782.434 472.047C772.576 449.532 763.704 426.858 754.767 404.247C745.831 381.637 737.181 358.962 728.182 336.511C723.73 325.285 719.15 314.25 714.412 303.024C709.673 291.798 704.871 280.763 699.72 270.015C694.702 259.118 689.096 248.503 682.929 238.213C677.126 227.671 669.251 218.412 659.777 210.992C665.673 213.102 671.128 216.282 675.869 220.373C680.677 224.397 685.144 228.811 689.225 233.57C697.2 243.138 704.399 253.325 710.755 264.036C717.115 274.658 722.871 285.629 728.182 296.759C730.885 302.293 733.302 307.922 735.878 313.55C738.453 319.179 740.68 324.84 742.937 330.564C752.008 353.356 759.895 376.602 766.566 400.209C773.403 423.786 778.704 447.783 782.434 472.047Z" fill="#B56700"/>
</g>
<g filter="url(#filter19_n_97_182)">
<path d="M862.777 472.225C863.095 441.664 864.495 411.262 866.18 380.923C867.866 350.585 869.774 320.31 871.713 290.068C873.653 259.825 875.657 229.645 877.215 199.402C877.883 184.297 878.614 169.191 878.582 154.086C879.191 138.968 878.006 123.831 875.053 108.992C878.423 115.929 880.923 123.256 882.494 130.807C883.353 134.592 884.021 138.376 884.688 142.16C885.356 145.945 885.897 149.761 886.406 153.577C888.25 168.841 889.236 184.17 889.586 199.466C890.572 230.091 889.586 260.62 887.55 291.085C885.515 321.551 882.558 351.857 878.455 382.068C874.353 412.279 869.615 442.427 862.777 472.225Z" fill="#B56700"/>
</g>
<path d="M575.681 1490.45C575.646 1515.35 567.757 1539.6 553.135 1559.76C538.513 1579.91 517.905 1594.94 494.246 1602.7C470.586 1610.45 445.082 1610.55 421.364 1602.97C397.647 1595.39 376.926 1580.52 362.153 1560.48C347.379 1540.43 339.307 1516.24 339.085 1491.34C338.863 1466.44 346.502 1442.11 360.916 1421.81C375.329 1401.5 395.781 1386.26 419.36 1378.26C442.938 1370.26 468.44 1369.9 492.234 1377.24C516.413 1384.72 537.56 1399.75 552.577 1420.12C567.594 1440.49 575.69 1465.14 575.681 1490.45Z" fill="#592C00"/>
<g filter="url(#filter20_n_97_182)">
<path d="M888.219 1862.22C977.137 1862.22 1049.22 1790.14 1049.22 1701.22C1049.22 1612.3 977.137 1540.22 888.219 1540.22C799.301 1540.22 727.219 1612.3 727.219 1701.22C727.219 1790.14 799.301 1862.22 888.219 1862.22Z" fill="url(#paint6_linear_97_182)"/>
</g>
<defs>
<filter id="filter0_n_97_182" x="275.16" y="1137.87" width="1267.98" height="1268.01" filterUnits="userSpaceOnUse" color-interpolation-filters="sRGB">
<feFlood flood-opacity="0" result="BackgroundImageFix"/>
<feBlend mode="normal" in="SourceGraphic" in2="BackgroundImageFix" result="shape"/>
<feTurbulence type="fractalNoise" baseFrequency="0.43478262424468994 0.43478262424468994" stitchTiles="stitch" numOctaves="3" result="noise" seed="5275" />
<feColorMatrix in="noise" type="luminanceToAlpha" result="alphaNoise" />
<feComponentTransfer in="alphaNoise" result="coloredNoise1">
<feFuncA type="discrete" tableValues="1 1 1 1 1 1 1 1 1 1 1 1 1 1 1 1 1 1 1 1 1 1 1 1 1 1 1 1 1 1 1 1 1 1 1 1 1 1 1 1 1 1 1 1 1 1 1 1 1 1 1 0 0 0 0 0 0 0 0 0 0 0 0 0 0 0 0 0 0 0 0 0 0 0 0 0 0 0 0 0 0 0 0 0 0 0 0 0 0 0 0 0 0 0 0 0 0 0 0 0 "/>
</feComponentTransfer>
<feComposite operator="in" in2="shape" in="coloredNoise1" result="noise1Clipped" />
<feFlood flood-color="rgba(0, 0, 0, 0.25)" result="color1Flood" />
<feComposite operator="in" in2="noise1Clipped" in="color1Flood" result="color1" />
<feMerge result="effect1_noise_97_182">
<feMergeNode in="shape" />
<feMergeNode in="color1" />
</feMerge>
</filter>
<filter id="filter1_n_97_182" x="173.43" y="1035.15" width="1286.96" height="1370.73" filterUnits="userSpaceOnUse" color-interpolation-filters="sRGB">
<feFlood flood-opacity="0" result="BackgroundImageFix"/>
<feBlend mode="normal" in="SourceGraphic" in2="BackgroundImageFix" result="shape"/>
<feTurbulence type="fractalNoise" baseFrequency="0.43478262424468994 0.43478262424468994" stitchTiles="stitch" numOctaves="3" result="noise" seed="5275" />
<feColorMatrix in="noise" type="luminanceToAlpha" result="alphaNoise" />
<feComponentTransfer in="alphaNoise" result="coloredNoise1">
<feFuncA type="discrete" tableValues="1 1 1 1 1 1 1 1 1 1 1 1 1 1 1 1 1 1 1 1 1 1 1 1 1 1 1 1 1 1 1 1 1 1 1 1 1 1 1 1 1 1 1 1 1 1 1 1 1 1 1 0 0 0 0 0 0 0 0 0 0 0 0 0 0 0 0 0 0 0 0 0 0 0 0 0 0 0 0 0 0 0 0 0 0 0 0 0 0 0 0 0 0 0 0 0 0 0 0 0 "/>
</feComponentTransfer>
<feComposite operator="in" in2="shape" in="coloredNoise1" result="noise1Clipped" />
<feFlood flood-color="rgba(0, 0, 0, 0.25)" result="color1Flood" />
<feComposite operator="in" in2="noise1Clipped" in="color1Flood" result="color1" />
<feMerge result="effect1_noise_97_182">
<feMergeNode in="shape" />
<feMergeNode in="color1" />
</feMerge>
</filter>
<filter id="filter2_n_97_182" x="275.16" y="1035.12" width="1267.98" height="1268.01" filterUnits="userSpaceOnUse" color-interpolation-filters="sRGB">
<feFlood flood-opacity="0" result="BackgroundImageFix"/>
<feBlend mode="normal" in="SourceGraphic" in2="BackgroundImageFix" result="shape"/>
<feTurbulence type="fractalNoise" baseFrequency="0.43478262424468994 0.43478262424468994" stitchTiles="stitch" numOctaves="3" result="noise" seed="587" />
<feColorMatrix in="noise" type="luminanceToAlpha" result="alphaNoise" />
<feComponentTransfer in="alphaNoise" result="coloredNoise1">
<feFuncA type="discrete" tableValues="1 1 1 1 1 1 1 1 1 1 1 1 1 1 1 1 1 1 1 1 1 1 1 1 1 1 1 1 1 1 1 1 1 1 1 1 1 1 1 1 1 1 1 1 1 1 1 1 1 1 1 0 0 0 0 0 0 0 0 0 0 0 0 0 0 0 0 0 0 0 0 0 0 0 0 0 0 0 0 0 0 0 0 0 0 0 0 0 0 0 0 0 0 0 0 0 0 0 0 0 "/>
</feComponentTransfer>
<feComposite operator="in" in2="shape" in="coloredNoise1" result="noise1Clipped" />
<feFlood flood-color="rgba(0, 0, 0, 0.25)" result="color1Flood" />
<feComposite operator="in" in2="noise1Clipped" in="color1Flood" result="color1" />
<feMerge result="effect1_noise_97_182">
<feMergeNode in="shape" />
<feMergeNode in="color1" />
</feMerge>
</filter>
<filter id="filter3_n_97_182" x="173.301" y="2303.16" width="1090.33" height="102.718" filterUnits="userSpaceOnUse" color-interpolation-filters="sRGB">
<feFlood flood-opacity="0" result="BackgroundImageFix"/>
<feBlend mode="normal" in="SourceGraphic" in2="BackgroundImageFix" result="shape"/>
<feTurbulence type="fractalNoise" baseFrequency="0.43478262424468994 0.43478262424468994" stitchTiles="stitch" numOctaves="3" result="noise" seed="5275" />
<feColorMatrix in="noise" type="luminanceToAlpha" result="alphaNoise" />
<feComponentTransfer in="alphaNoise" result="coloredNoise1">
<feFuncA type="discrete" tableValues="1 1 1 1 1 1 1 1 1 1 1 1 1 1 1 1 1 1 1 1 1 1 1 1 1 1 1 1 1 1 1 1 1 1 1 1 1 1 1 1 1 1 1 1 1 1 1 1 1 1 1 0 0 0 0 0 0 0 0 0 0 0 0 0 0 0 0 0 0 0 0 0 0 0 0 0 0 0 0 0 0 0 0 0 0 0 0 0 0 0 0 0 0 0 0 0 0 0 0 0 "/>
</feComponentTransfer>
<feComposite operator="in" in2="shape" in="coloredNoise1" result="noise1Clipped" />
<feFlood flood-color="rgba(0, 0, 0, 0.25)" result="color1Flood" />
<feComposite operator="in" in2="noise1Clipped" in="color1Flood" result="color1" />
<feMerge result="effect1_noise_97_182">
<feMergeNode in="shape" />
<feMergeNode in="color1" />
</feMerge>
</filter>
<filter id="filter4_n_97_182" x="376.32" y="1190.15" width="1022.54" height="1022.53" filterUnits="userSpaceOnUse" color-interpolation-filters="sRGB">
<feFlood flood-opacity="0" result="BackgroundImageFix"/>
<feBlend mode="normal" in="SourceGraphic" in2="BackgroundImageFix" result="shape"/>
<feTurbulence type="fractalNoise" baseFrequency="0.25 0.25" stitchTiles="stitch" numOctaves="3" result="noise" seed="22" />
<feColorMatrix in="noise" type="luminanceToAlpha" result="alphaNoise" />
<feComponentTransfer in="alphaNoise" result="coloredNoise1">
<feFuncA type="discrete" tableValues="1 1 1 1 1 1 1 1 1 1 1 1 1 1 1 1 1 1 1 1 1 1 1 1 1 1 1 1 1 1 1 1 1 1 1 1 1 1 1 1 1 1 1 1 1 1 1 1 1 1 1 0 0 0 0 0 0 0 0 0 0 0 0 0 0 0 0 0 0 0 0 0 0 0 0 0 0 0 0 0 0 0 0 0 0 0 0 0 0 0 0 0 0 0 0 0 0 0 0 0 "/>
</feComponentTransfer>
<feComposite operator="in" in2="shape" in="coloredNoise1" result="noise1Clipped" />
<feFlood flood-color="rgba(98, 55, 7, 0.22)" result="color1Flood" />
<feComposite operator="in" in2="noise1Clipped" in="color1Flood" result="color1" />
<feMerge result="effect1_noise_97_182">
<feMergeNode in="shape" />
<feMergeNode in="color1" />
</feMerge>
</filter>
<filter id="filter5_n_97_182" x="316.211" y="2135.99" width="126.061" height="126.06" filterUnits="userSpaceOnUse" color-interpolation-filters="sRGB">
<feFlood flood-opacity="0" result="BackgroundImageFix"/>
<feBlend mode="normal" in="SourceGraphic" in2="BackgroundImageFix" result="shape"/>
<feTurbulence type="fractalNoise" baseFrequency="0.43478262424468994 0.43478262424468994" stitchTiles="stitch" numOctaves="3" result="noise" seed="7624" />
<feColorMatrix in="noise" type="luminanceToAlpha" result="alphaNoise" />
<feComponentTransfer in="alphaNoise" result="coloredNoise1">
<feFuncA type="discrete" tableValues="1 1 1 1 1 1 1 1 1 1 1 1 1 1 1 1 1 1 1 1 1 1 1 1 1 1 1 1 1 1 1 1 1 1 1 1 1 1 1 1 1 1 1 1 1 1 1 1 1 1 1 0 0 0 0 0 0 0 0 0 0 0 0 0 0 0 0 0 0 0 0 0 0 0 0 0 0 0 0 0 0 0 0 0 0 0 0 0 0 0 0 0 0 0 0 0 0 0 0 0 "/>
</feComponentTransfer>
<feComposite operator="in" in2="shape" in="coloredNoise1" result="noise1Clipped" />
<feFlood flood-color="rgba(0, 0, 0, 0.25)" result="color1Flood" />
<feComposite operator="in" in2="noise1Clipped" in="color1Flood" result="color1" />
<feMerge result="effect1_noise_97_182">
<feMergeNode in="shape" />
<feMergeNode in="color1" />
</feMerge>
</filter>
<filter id="filter6_n_97_182" x="832.824" y="1148.11" width="525.609" height="175.631" filterUnits="userSpaceOnUse" color-interpolation-filters="sRGB">
<feFlood flood-opacity="0" result="BackgroundImageFix"/>
<feBlend mode="normal" in="SourceGraphic" in2="BackgroundImageFix" result="shape"/>
<feTurbulence type="fractalNoise" baseFrequency="0.43478262424468994 0.43478262424468994" stitchTiles="stitch" numOctaves="3" result="noise" seed="3656" />
<feColorMatrix in="noise" type="luminanceToAlpha" result="alphaNoise" />
<feComponentTransfer in="alphaNoise" result="coloredNoise1">
<feFuncA type="discrete" tableValues="1 1 1 1 1 1 1 1 1 1 1 1 1 1 1 1 1 1 1 1 1 1 1 1 1 1 1 1 1 1 1 1 1 1 1 1 1 1 1 1 1 1 1 1 1 1 1 1 1 1 1 0 0 0 0 0 0 0 0 0 0 0 0 0 0 0 0 0 0 0 0 0 0 0 0 0 0 0 0 0 0 0 0 0 0 0 0 0 0 0 0 0 0 0 0 0 0 0 0 0 "/>
</feComponentTransfer>
<feComposite operator="in" in2="shape" in="coloredNoise1" result="noise1Clipped" />
<feFlood flood-color="rgba(0, 0, 0, 0.25)" result="color1Flood" />
<feComposite operator="in" in2="noise1Clipped" in="color1Flood" result="color1" />
<feMerge result="effect1_noise_97_182">
<feMergeNode in="shape" />
<feMergeNode in="color1" />
</feMerge>
</filter>
<filter id="filter7_n_97_182" x="1111.79" y="1355.39" width="447.627" height="1111.99" filterUnits="userSpaceOnUse" color-interpolation-filters="sRGB">
<feFlood flood-opacity="0" result="BackgroundImageFix"/>
<feBlend mode="normal" in="SourceGraphic" in2="BackgroundImageFix" result="shape"/>
<feTurbulence type="fractalNoise" baseFrequency="0.43478262424468994 0.43478262424468994" stitchTiles="stitch" numOctaves="3" result="noise" seed="3656" />
<feColorMatrix in="noise" type="luminanceToAlpha" result="alphaNoise" />
<feComponentTransfer in="alphaNoise" result="coloredNoise1">
<feFuncA type="discrete" tableValues="1 1 1 1 1 1 1 1 1 1 1 1 1 1 1 1 1 1 1 1 1 1 1 1 1 1 1 1 1 1 1 1 1 1 1 1 1 1 1 1 1 1 1 1 1 1 1 1 1 1 1 0 0 0 0 0 0 0 0 0 0 0 0 0 0 0 0 0 0 0 0 0 0 0 0 0 0 0 0 0 0 0 0 0 0 0 0 0 0 0 0 0 0 0 0 0 0 0 0 0 "/>
</feComponentTransfer>
<feComposite operator="in" in2="shape" in="coloredNoise1" result="noise1Clipped" />
<feFlood flood-color="rgba(0, 0, 0, 0.25)" result="color1Flood" />
<feComposite operator="in" in2="noise1Clipped" in="color1Flood" result="color1" />
<feMerge result="effect1_noise_97_182">
<feMergeNode in="shape" />
<feMergeNode in="color1" />
</feMerge>
</filter>
<filter id="filter8_n_97_182" x="1329.3" y="1073.97" width="310.506" height="310.577" filterUnits="userSpaceOnUse" color-interpolation-filters="sRGB">
<feFlood flood-opacity="0" result="BackgroundImageFix"/>
<feBlend mode="normal" in="SourceGraphic" in2="BackgroundImageFix" result="shape"/>
<feTurbulence type="fractalNoise" baseFrequency="0.43478262424468994 0.43478262424468994" stitchTiles="stitch" numOctaves="3" result="noise" seed="3465" />
<feColorMatrix in="noise" type="luminanceToAlpha" result="alphaNoise" />
<feComponentTransfer in="alphaNoise" result="coloredNoise1">
<feFuncA type="discrete" tableValues="1 1 1 1 1 1 1 1 1 1 1 1 1 1 1 1 1 1 1 1 1 1 1 1 1 1 1 1 1 1 1 1 1 1 1 1 1 1 1 1 1 1 1 1 1 1 1 1 1 1 1 0 0 0 0 0 0 0 0 0 0 0 0 0 0 0 0 0 0 0 0 0 0 0 0 0 0 0 0 0 0 0 0 0 0 0 0 0 0 0 0 0 0 0 0 0 0 0 0 0 "/>
</feComponentTransfer>
<feComposite operator="in" in2="shape" in="coloredNoise1" result="noise1Clipped" />
<feFlood flood-color="#D39448" result="color1Flood" />
<feComposite operator="in" in2="noise1Clipped" in="color1Flood" result="color1" />
<feMerge result="effect1_noise_97_182">
<feMergeNode in="shape" />
<feMergeNode in="color1" />
</feMerge>
</filter>
<filter id="filter9_n_97_182" x="381.621" y="623.326" width="366.836" height="773.563" filterUnits="userSpaceOnUse" color-interpolation-filters="sRGB">
<feFlood flood-opacity="0" result="BackgroundImageFix"/>
<feBlend mode="normal" in="SourceGraphic" in2="BackgroundImageFix" result="shape"/>
<feTurbulence type="fractalNoise" baseFrequency="0.43478262424468994 0.43478262424468994" stitchTiles="stitch" numOctaves="3" result="noise" seed="5894" />
<feColorMatrix in="noise" type="luminanceToAlpha" result="alphaNoise" />
<feComponentTransfer in="alphaNoise" result="coloredNoise1">
<feFuncA type="discrete" tableValues="1 1 1 1 1 1 1 1 1 1 1 1 1 1 1 1 1 1 1 1 1 1 1 1 1 1 1 1 1 1 1 1 1 1 1 1 1 1 1 1 1 1 1 1 1 1 1 1 1 1 1 0 0 0 0 0 0 0 0 0 0 0 0 0 0 0 0 0 0 0 0 0 0 0 0 0 0 0 0 0 0 0 0 0 0 0 0 0 0 0 0 0 0 0 0 0 0 0 0 0 "/>
</feComponentTransfer>
<feComposite operator="in" in2="shape" in="coloredNoise1" result="noise1Clipped" />
<feFlood flood-color="#B56700" result="color1Flood" />
<feComposite operator="in" in2="noise1Clipped" in="color1Flood" result="color1" />
<feMerge result="effect1_noise_97_182">
<feMergeNode in="shape" />
<feMergeNode in="color1" />
</feMerge>
</filter>
<filter id="filter10_n_97_182" x="542.859" y="0" width="874.871" height="981.424" filterUnits="userSpaceOnUse" color-interpolation-filters="sRGB">
<feFlood flood-opacity="0" result="BackgroundImageFix"/>
<feBlend mode="normal" in="SourceGraphic" in2="BackgroundImageFix" result="shape"/>
<feTurbulence type="fractalNoise" baseFrequency="0.43478262424468994 0.43478262424468994" stitchTiles="stitch" numOctaves="3" result="noise" seed="1200" />
<feColorMatrix in="noise" type="luminanceToAlpha" result="alphaNoise" />
<feComponentTransfer in="alphaNoise" result="coloredNoise1">
<feFuncA type="discrete" tableValues="1 1 1 1 1 1 1 1 1 1 1 1 1 1 1 1 1 1 1 1 1 1 1 1 1 1 1 1 1 1 1 1 1 1 1 1 1 1 1 1 1 1 1 1 1 1 1 1 1 1 1 0 0 0 0 0 0 0 0 0 0 0 0 0 0 0 0 0 0 0 0 0 0 0 0 0 0 0 0 0 0 0 0 0 0 0 0 0 0 0 0 0 0 0 0 0 0 0 0 0 "/>
</feComponentTransfer>
<feComposite operator="in" in2="shape" in="coloredNoise1" result="noise1Clipped" />
<feFlood flood-color="#B56700" result="color1Flood" />
<feComposite operator="in" in2="noise1Clipped" in="color1Flood" result="color1" />
<feMerge result="effect1_noise_97_182">
<feMergeNode in="shape" />
<feMergeNode in="color1" />
</feMerge>
</filter>
<filter id="filter11_n_97_182" x="0.869141" y="528.57" width="1557.91" height="2066.49" filterUnits="userSpaceOnUse" color-interpolation-filters="sRGB">
<feFlood flood-opacity="0" result="BackgroundImageFix"/>
<feBlend mode="normal" in="SourceGraphic" in2="BackgroundImageFix" result="shape"/>
<feTurbulence type="fractalNoise" baseFrequency="0.43478262424468994 0.43478262424468994" stitchTiles="stitch" numOctaves="3" result="noise" seed="1956" />
<feColorMatrix in="noise" type="luminanceToAlpha" result="alphaNoise" />
<feComponentTransfer in="alphaNoise" result="coloredNoise1">
<feFuncA type="discrete" tableValues="1 1 1 1 1 1 1 1 1 1 1 1 1 1 1 1 1 1 1 1 1 1 1 1 1 1 1 1 1 1 1 1 1 1 1 1 1 1 1 1 1 1 1 1 1 1 1 1 1 1 1 0 0 0 0 0 0 0 0 0 0 0 0 0 0 0 0 0 0 0 0 0 0 0 0 0 0 0 0 0 0 0 0 0 0 0 0 0 0 0 0 0 0 0 0 0 0 0 0 0 "/>
</feComponentTransfer>
<feComposite operator="in" in2="shape" in="coloredNoise1" result="noise1Clipped" />
<feFlood flood-color="rgba(0, 0, 0, 0.25)" result="color1Flood" />
<feComposite operator="in" in2="noise1Clipped" in="color1Flood" result="color1" />
<feMerge result="effect1_noise_97_182">
<feMergeNode in="shape" />
<feMergeNode in="color1" />
</feMerge>
</filter>
<filter id="filter12_n_97_182" x="1008.78" y="472.016" width="275.271" height="113.148" filterUnits="userSpaceOnUse" color-interpolation-filters="sRGB">
<feFlood flood-opacity="0" result="BackgroundImageFix"/>
<feBlend mode="normal" in="SourceGraphic" in2="BackgroundImageFix" result="shape"/>
<feTurbulence type="fractalNoise" baseFrequency="0.43478262424468994 0.43478262424468994" stitchTiles="stitch" numOctaves="3" result="noise" seed="4744" />
<feColorMatrix in="noise" type="luminanceToAlpha" result="alphaNoise" />
<feComponentTransfer in="alphaNoise" result="coloredNoise1">
<feFuncA type="discrete" tableValues="1 1 1 1 1 1 1 1 1 1 1 1 1 1 1 1 1 1 1 1 1 1 1 1 1 1 1 1 1 1 1 1 1 1 1 1 1 1 1 1 1 1 1 1 1 1 1 1 1 1 1 0 0 0 0 0 0 0 0 0 0 0 0 0 0 0 0 0 0 0 0 0 0 0 0 0 0 0 0 0 0 0 0 0 0 0 0 0 0 0 0 0 0 0 0 0 0 0 0 0 "/>
</feComponentTransfer>
<feComposite operator="in" in2="shape" in="coloredNoise1" result="noise1Clipped" />
<feFlood flood-color="rgba(0, 0, 0, 0.25)" result="color1Flood" />
<feComposite operator="in" in2="noise1Clipped" in="color1Flood" result="color1" />
<feMerge result="effect1_noise_97_182">
<feMergeNode in="shape" />
<feMergeNode in="color1" />
</feMerge>
</filter>
<filter id="filter13_n_97_182" x="923.363" y="202.851" width="205.309" height="314.832" filterUnits="userSpaceOnUse" color-interpolation-filters="sRGB">
<feFlood flood-opacity="0" result="BackgroundImageFix"/>
<feBlend mode="normal" in="SourceGraphic" in2="BackgroundImageFix" result="shape"/>
<feTurbulence type="fractalNoise" baseFrequency="0.43478262424468994 0.43478262424468994" stitchTiles="stitch" numOctaves="3" result="noise" seed="4744" />
<feColorMatrix in="noise" type="luminanceToAlpha" result="alphaNoise" />
<feComponentTransfer in="alphaNoise" result="coloredNoise1">
<feFuncA type="discrete" tableValues="1 1 1 1 1 1 1 1 1 1 1 1 1 1 1 1 1 1 1 1 1 1 1 1 1 1 1 1 1 1 1 1 1 1 1 1 1 1 1 1 1 1 1 1 1 1 1 1 1 1 1 0 0 0 0 0 0 0 0 0 0 0 0 0 0 0 0 0 0 0 0 0 0 0 0 0 0 0 0 0 0 0 0 0 0 0 0 0 0 0 0 0 0 0 0 0 0 0 0 0 "/>
</feComponentTransfer>
<feComposite operator="in" in2="shape" in="coloredNoise1" result="noise1Clipped" />
<feFlood flood-color="rgba(0, 0, 0, 0.25)" result="color1Flood" />
<feComposite operator="in" in2="noise1Clipped" in="color1Flood" result="color1" />
<feMerge result="effect1_noise_97_182">
<feMergeNode in="shape" />
<feMergeNode in="color1" />
</feMerge>
</filter>
<filter id="filter14_n_97_182" x="989.699" y="655.491" width="276.002" height="74.8145" filterUnits="userSpaceOnUse" color-interpolation-filters="sRGB">
<feFlood flood-opacity="0" result="BackgroundImageFix"/>
<feBlend mode="normal" in="SourceGraphic" in2="BackgroundImageFix" result="shape"/>
<feTurbulence type="fractalNoise" baseFrequency="0.43478262424468994 0.43478262424468994" stitchTiles="stitch" numOctaves="3" result="noise" seed="4744" />
<feColorMatrix in="noise" type="luminanceToAlpha" result="alphaNoise" />
<feComponentTransfer in="alphaNoise" result="coloredNoise1">
<feFuncA type="discrete" tableValues="1 1 1 1 1 1 1 1 1 1 1 1 1 1 1 1 1 1 1 1 1 1 1 1 1 1 1 1 1 1 1 1 1 1 1 1 1 1 1 1 1 1 1 1 1 1 1 1 1 1 1 0 0 0 0 0 0 0 0 0 0 0 0 0 0 0 0 0 0 0 0 0 0 0 0 0 0 0 0 0 0 0 0 0 0 0 0 0 0 0 0 0 0 0 0 0 0 0 0 0 "/>
</feComponentTransfer>
<feComposite operator="in" in2="shape" in="coloredNoise1" result="noise1Clipped" />
<feFlood flood-color="rgba(0, 0, 0, 0.25)" result="color1Flood" />
<feComposite operator="in" in2="noise1Clipped" in="color1Flood" result="color1" />
<feMerge result="effect1_noise_97_182">
<feMergeNode in="shape" />
<feMergeNode in="color1" />
</feMerge>
</filter>
<filter id="filter15_n_97_182" x="916.113" y="715.995" width="212.592" height="184.033" filterUnits="userSpaceOnUse" color-interpolation-filters="sRGB">
<feFlood flood-opacity="0" result="BackgroundImageFix"/>
<feBlend mode="normal" in="SourceGraphic" in2="BackgroundImageFix" result="shape"/>
<feTurbulence type="fractalNoise" baseFrequency="0.43478262424468994 0.43478262424468994" stitchTiles="stitch" numOctaves="3" result="noise" seed="4744" />
<feColorMatrix in="noise" type="luminanceToAlpha" result="alphaNoise" />
<feComponentTransfer in="alphaNoise" result="coloredNoise1">
<feFuncA type="discrete" tableValues="1 1 1 1 1 1 1 1 1 1 1 1 1 1 1 1 1 1 1 1 1 1 1 1 1 1 1 1 1 1 1 1 1 1 1 1 1 1 1 1 1 1 1 1 1 1 1 1 1 1 1 0 0 0 0 0 0 0 0 0 0 0 0 0 0 0 0 0 0 0 0 0 0 0 0 0 0 0 0 0 0 0 0 0 0 0 0 0 0 0 0 0 0 0 0 0 0 0 0 0 "/>
</feComponentTransfer>
<feComposite operator="in" in2="shape" in="coloredNoise1" result="noise1Clipped" />
<feFlood flood-color="rgba(0, 0, 0, 0.25)" result="color1Flood" />
<feComposite operator="in" in2="noise1Clipped" in="color1Flood" result="color1" />
<feMerge result="effect1_noise_97_182">
<feMergeNode in="shape" />
<feMergeNode in="color1" />
</feMerge>
</filter>
<filter id="filter16_n_97_182" x="801.629" y="715.995" width="30.6055" height="79.6937" filterUnits="userSpaceOnUse" color-interpolation-filters="sRGB">
<feFlood flood-opacity="0" result="BackgroundImageFix"/>
<feBlend mode="normal" in="SourceGraphic" in2="BackgroundImageFix" result="shape"/>
<feTurbulence type="fractalNoise" baseFrequency="0.43478262424468994 0.43478262424468994" stitchTiles="stitch" numOctaves="3" result="noise" seed="4744" />
<feColorMatrix in="noise" type="luminanceToAlpha" result="alphaNoise" />
<feComponentTransfer in="alphaNoise" result="coloredNoise1">
<feFuncA type="discrete" tableValues="1 1 1 1 1 1 1 1 1 1 1 1 1 1 1 1 1 1 1 1 1 1 1 1 1 1 1 1 1 1 1 1 1 1 1 1 1 1 1 1 1 1 1 1 1 1 1 1 1 1 1 0 0 0 0 0 0 0 0 0 0 0 0 0 0 0 0 0 0 0 0 0 0 0 0 0 0 0 0 0 0 0 0 0 0 0 0 0 0 0 0 0 0 0 0 0 0 0 0 0 "/>
</feComponentTransfer>
<feComposite operator="in" in2="shape" in="coloredNoise1" result="noise1Clipped" />
<feFlood flood-color="rgba(0, 0, 0, 0.25)" result="color1Flood" />
<feComposite operator="in" in2="noise1Clipped" in="color1Flood" result="color1" />
<feMerge result="effect1_noise_97_182">
<feMergeNode in="shape" />
<feMergeNode in="color1" />
</feMerge>
</filter>
<filter id="filter17_n_97_182" x="621.777" y="517.992" width="112.131" height="49.4946" filterUnits="userSpaceOnUse" color-interpolation-filters="sRGB">
<feFlood flood-opacity="0" result="BackgroundImageFix"/>
<feBlend mode="normal" in="SourceGraphic" in2="BackgroundImageFix" result="shape"/>
<feTurbulence type="fractalNoise" baseFrequency="0.43478262424468994 0.43478262424468994" stitchTiles="stitch" numOctaves="3" result="noise" seed="4744" />
<feColorMatrix in="noise" type="luminanceToAlpha" result="alphaNoise" />
<feComponentTransfer in="alphaNoise" result="coloredNoise1">
<feFuncA type="discrete" tableValues="1 1 1 1 1 1 1 1 1 1 1 1 1 1 1 1 1 1 1 1 1 1 1 1 1 1 1 1 1 1 1 1 1 1 1 1 1 1 1 1 1 1 1 1 1 1 1 1 1 1 1 0 0 0 0 0 0 0 0 0 0 0 0 0 0 0 0 0 0 0 0 0 0 0 0 0 0 0 0 0 0 0 0 0 0 0 0 0 0 0 0 0 0 0 0 0 0 0 0 0 "/>
</feComponentTransfer>
<feComposite operator="in" in2="shape" in="coloredNoise1" result="noise1Clipped" />
<feFlood flood-color="rgba(0, 0, 0, 0.25)" result="color1Flood" />
<feComposite operator="in" in2="noise1Clipped" in="color1Flood" result="color1" />
<feMerge result="effect1_noise_97_182">
<feMergeNode in="shape" />
<feMergeNode in="color1" />
</feMerge>
</filter>
<filter id="filter18_n_97_182" x="659.777" y="210.992" width="122.656" height="261.056" filterUnits="userSpaceOnUse" color-interpolation-filters="sRGB">
<feFlood flood-opacity="0" result="BackgroundImageFix"/>
<feBlend mode="normal" in="SourceGraphic" in2="BackgroundImageFix" result="shape"/>
<feTurbulence type="fractalNoise" baseFrequency="0.43478262424468994 0.43478262424468994" stitchTiles="stitch" numOctaves="3" result="noise" seed="4744" />
<feColorMatrix in="noise" type="luminanceToAlpha" result="alphaNoise" />
<feComponentTransfer in="alphaNoise" result="coloredNoise1">
<feFuncA type="discrete" tableValues="1 1 1 1 1 1 1 1 1 1 1 1 1 1 1 1 1 1 1 1 1 1 1 1 1 1 1 1 1 1 1 1 1 1 1 1 1 1 1 1 1 1 1 1 1 1 1 1 1 1 1 0 0 0 0 0 0 0 0 0 0 0 0 0 0 0 0 0 0 0 0 0 0 0 0 0 0 0 0 0 0 0 0 0 0 0 0 0 0 0 0 0 0 0 0 0 0 0 0 0 "/>
</feComponentTransfer>
<feComposite operator="in" in2="shape" in="coloredNoise1" result="noise1Clipped" />
<feFlood flood-color="rgba(0, 0, 0, 0.25)" result="color1Flood" />
<feComposite operator="in" in2="noise1Clipped" in="color1Flood" result="color1" />
<feMerge result="effect1_noise_97_182">
<feMergeNode in="shape" />
<feMergeNode in="color1" />
</feMerge>
</filter>
<filter id="filter19_n_97_182" x="862.777" y="108.992" width="27.1934" height="363.233" filterUnits="userSpaceOnUse" color-interpolation-filters="sRGB">
<feFlood flood-opacity="0" result="BackgroundImageFix"/>
<feBlend mode="normal" in="SourceGraphic" in2="BackgroundImageFix" result="shape"/>
<feTurbulence type="fractalNoise" baseFrequency="0.43478262424468994 0.43478262424468994" stitchTiles="stitch" numOctaves="3" result="noise" seed="4744" />
<feColorMatrix in="noise" type="luminanceToAlpha" result="alphaNoise" />
<feComponentTransfer in="alphaNoise" result="coloredNoise1">
<feFuncA type="discrete" tableValues="1 1 1 1 1 1 1 1 1 1 1 1 1 1 1 1 1 1 1 1 1 1 1 1 1 1 1 1 1 1 1 1 1 1 1 1 1 1 1 1 1 1 1 1 1 1 1 1 1 1 1 0 0 0 0 0 0 0 0 0 0 0 0 0 0 0 0 0 0 0 0 0 0 0 0 0 0 0 0 0 0 0 0 0 0 0 0 0 0 0 0 0 0 0 0 0 0 0 0 0 "/>
</feComponentTransfer>
<feComposite operator="in" in2="shape" in="coloredNoise1" result="noise1Clipped" />
<feFlood flood-color="rgba(0, 0, 0, 0.25)" result="color1Flood" />
<feComposite operator="in" in2="noise1Clipped" in="color1Flood" result="color1" />
<feMerge result="effect1_noise_97_182">
<feMergeNode in="shape" />
<feMergeNode in="color1" />
</feMerge>
</filter>
<filter id="filter20_n_97_182" x="727.219" y="1540.22" width="322" height="322" filterUnits="userSpaceOnUse" color-interpolation-filters="sRGB">
<feFlood flood-opacity="0" result="BackgroundImageFix"/>
<feBlend mode="normal" in="SourceGraphic" in2="BackgroundImageFix" result="shape"/>
<feTurbulence type="fractalNoise" baseFrequency="0.25 0.25" stitchTiles="stitch" numOctaves="3" result="noise" seed="601" />
<feColorMatrix in="noise" type="luminanceToAlpha" result="alphaNoise" />
<feComponentTransfer in="alphaNoise" result="coloredNoise1">
<feFuncA type="discrete" tableValues="1 1 1 1 1 1 1 1 1 1 1 1 1 1 1 1 1 1 1 1 1 1 1 1 1 1 1 1 1 1 1 1 1 1 1 1 1 1 1 1 1 1 1 1 1 1 1 1 1 1 1 0 0 0 0 0 0 0 0 0 0 0 0 0 0 0 0 0 0 0 0 0 0 0 0 0 0 0 0 0 0 0 0 0 0 0 0 0 0 0 0 0 0 0 0 0 0 0 0 0 "/>
</feComponentTransfer>
<feComposite operator="in" in2="shape" in="coloredNoise1" result="noise1Clipped" />
<feFlood flood-color="#BF8A46" result="color1Flood" />
<feComposite operator="in" in2="noise1Clipped" in="color1Flood" result="color1" />
<feMerge result="effect1_noise_97_182">
<feMergeNode in="shape" />
<feMergeNode in="color1" />
</feMerge>
</filter>
<linearGradient id="paint0_linear_97_182" x1="526.072" y1="2062.93" x2="1249.1" y2="1339.9" gradientUnits="userSpaceOnUse">
<stop stop-color="#E9C47E"/>
<stop offset="0.47" stop-color="#E0B067"/>
<stop offset="1" stop-color="#D39448"/>
</linearGradient>
<linearGradient id="paint1_linear_97_182" x1="765.98" y1="1823.02" x2="1009.2" y2="1579.81" gradientUnits="userSpaceOnUse">
<stop stop-color="#E9C47E"/>
<stop offset="0.47" stop-color="#E0B067"/>
<stop offset="1" stop-color="#D39448"/>
</linearGradient>
<linearGradient id="paint2_linear_97_182" x1="832.792" y1="1235.94" x2="1358.43" y2="1235.94" gradientUnits="userSpaceOnUse">
<stop stop-color="#DD805F"/>
<stop offset="0.17" stop-color="#DA775A"/>
<stop offset="0.45" stop-color="#D25F4E"/>
<stop offset="0.8" stop-color="#C6373A"/>
<stop offset="1" stop-color="#BE1E2D"/>
</linearGradient>
<linearGradient id="paint3_linear_97_182" x1="1111.72" y1="1911.43" x2="1559.42" y2="1911.43" gradientUnits="userSpaceOnUse">
<stop stop-color="#DD805F"/>
<stop offset="0.17" stop-color="#DA775A"/>
<stop offset="0.45" stop-color="#D25F4E"/>
<stop offset="0.8" stop-color="#C6373A"/>
<stop offset="1" stop-color="#BE1E2D"/>
</linearGradient>
<linearGradient id="paint4_linear_97_182" x1="381.631" y1="1010.03" x2="748.457" y2="1010.03" gradientUnits="userSpaceOnUse">
<stop stop-color="#E9C47E"/>
<stop offset="0.23" stop-color="#E3B977"/>
<stop offset="0.62" stop-color="#D29C63"/>
<stop offset="1" stop-color="#BF7B4C"/>
</linearGradient>
<radialGradient id="paint5_radial_97_182" cx="0" cy="0" r="1" gradientUnits="userSpaceOnUse" gradientTransform="translate(824.111 626.029) scale(465.06 465.06)">
<stop offset="0.23" stop-color="#D39448"/>
<stop offset="1" stop-color="#E9C47E"/>
</radialGradient>
<linearGradient id="paint6_linear_97_182" x1="774.376" y1="1815.06" x2="1002.06" y2="1587.38" gradientUnits="userSpaceOnUse">
<stop stop-color="#E9C47E"/>
<stop offset="0.47" stop-color="#E0B067"/>
<stop offset="1" stop-color="#D39448"/>
</linearGradient>
</defs>
</svg>
